<svg width="200" height="200" viewBox="0 0 200 200" fill="none" xmlns="http://www.w3.org/2000/svg">
<path d="M66.4055 41.3035C63.9722 38.8226 64.0108 34.8388 66.4917 32.4055C68.9727 29.9722 72.9565 30.0108 75.3898 32.4917L133.231 91.4656C135.664 93.9466 135.626 97.9304 133.145 100.364C130.664 102.797 126.68 102.758 124.247 100.277L66.4055 41.3035Z" fill="#F8F9F9"/>
<path d="M75.5443 158.033C73.0732 160.538 69.0396 160.565 66.535 158.094C64.0304 155.622 64.0033 151.589 66.4744 149.084L123.637 91.1478C126.108 88.6433 130.142 88.6162 132.647 91.0873C135.151 93.5584 135.178 97.592 132.707 100.097L75.5443 158.033Z" fill="#F8F9F9"/>
</svg>
